PathFileType	4	(X/Y/Z)	pose_F01_0-96.trc
DataRate	CameraRate	NumFrames	NumMarkers	Units	OrigDataRate	OrigDataStartFrame	OrigNumFrames
30	30	8	21	m	30	36	96
Frame#	Time	CHip			RHip			RKnee			RAnkle			RBigToe			RSmallToe			RHeel			LHip			LKnee			LAnkle			LBigToe			LSmallToe			LHeel			Neck			Nose			RShoulder			RElbow			RWrist			LShoulder			LElbow			LWrist			
		X1	Y1	Z1	X2	Y2	Z2	X3	Y3	Z3	X4	Y4	Z4	X5	Y5	Z5	X6	Y6	Z6	X7	Y7	Z7	X8	Y8	Z8	X9	Y9	Z9	X10	Y10	Z10	X11	Y11	Z11	X12	Y12	Z12	X13	Y13	Z13	X14	Y14	Z14	X15	Y15	Z15	X16	Y16	Z16	X17	Y17	Z17	X18	Y18	Z18	X19	Y19	Z19	X20	Y20	Z20	X21	Y21	Z21	
36	1.2	-0.21975930005247193	1.8323458634873675	-0.4500262910781279	-0.22879541776299298	1.830766806192657	-0.38510255462949394	-0.22199107110563712	1.705758476158923	-0.3891166764148988	-0.21823275774027218	1.5811341832743306	-0.3786140360640552	-0.22659267255163043	1.6618969597063291	-0.3779899336703998	-0.22185050449105623	1.6668615101750466	-0.35587354616372224	-0.21511050281758043	1.5712529019083155	-0.3902239667965636	-0.21345540457268244	1.8343718793960946	-0.5103633429207469	-0.21089147729478233	1.7066119779037738	-0.4928095745703568	-0.21227428686990835	1.5754753861673412	-0.4716054500319194	-0.23873539339623806	1.5384606628656334	-0.44822845029768044	-0.23275991356112993	1.5406854856764098	-0.47728075591050756	-0.20339386207803378	1.5662910803312713	-0.47081456104157837	-0.2103367958415243	1.989494691554571	-0.4835892750289433	-0.22867331461564167	2.053429628593108	-0.47426347637107713	-0.21962271839256592	1.9854896255555374	-0.3937067807180007	-0.22429567998181907	1.8994979402185859	-0.34587000130621354	-0.2383341089477551	1.8283669336424333	-0.3176231029544168	-0.19765282602182382	1.9937325826701275	-0.5782631045720606	-0.1970401796383929	1.9095762132558443	-0.5936123151302697	-0.20630930908827655	1.8322793786073708	-0.5785308099075868
37	1.2333333333333334	-0.21983454936465086	1.833947784651321	-0.45029053494097954	-0.2269359709891659	1.8310260390659572	-0.3872764539934313	-0.2208096957044757	1.7045487594147275	-0.38594148447806953	-0.21809093734788376	1.5806000349288047	-0.3786416946714379	-0.22659267255163043	1.6618969597063291	-0.3779899336703998	-0.22185050449105623	1.6668615101750466	-0.35587354616372224	-0.21459166832519647	1.571227106319215	-0.3907363198856852	-0.21353888893811135	1.8358389221110147	-0.5106067051798542	-0.20973891170265557	1.7048894886725376	-0.4896047590297866	-0.21224375813711135	1.5754272498948145	-0.47161756272003746	-0.23882970663720196	1.538858533130089	-0.4486446309441113	-0.23292189118777387	1.5418467187658162	-0.4774193778939093	-0.20326822528493424	1.56592240604629	-0.47085064272470956	-0.21034649995380136	1.9894455502402355	-0.4835665474212113	-0.22869487152795695	2.053431686477997	-0.4742383494744555	-0.22146532727230425	1.9854143434298248	-0.391657216997813	-0.2243246183982893	1.8994721575502505	-0.34589032965805117	-0.2370361984124631	1.8251010788207986	-0.3140154293698536	-0.19774348268817118	1.992506729341407	-0.5782431138695766	-0.1950302908121362	1.907102835323058	-0.5956036762599978	-0.2063994000646832	1.8297160567304138	-0.5783020061303269
38	1.2666666666666666	-0.22010704873511747	1.8368452269079538	-0.4506684858491867	-0.22901997980592273	1.8337430459911441	-0.38553254238568474	-0.22182369089072215	1.7072323141188506	-0.38948570493389606	-0.21816235497830536	1.583643794803092	-0.37889858199713455	-0.22659267255163043	1.6618969597063291	-0.3779899336703998	-0.22185050449105623	1.6668615101750466	-0.35587354616372224	-0.21480078238571923	1.572528072979864	-0.390447861156819	-0.21380781342287358	1.8386232817071826	-0.5109986955253563	-0.21088822474985205	1.7063699579907288	-0.49278563761870803	-0.21221721816103972	1.5754450042374857	-0.47165747072962566	-0.23919054943963544	1.5406090280339764	-0.44829840984601854	-0.2329965546804106	1.5419781344769536	-0.4773658191155802	-0.20330909533681718	1.5665574241727334	-0.4706383001021764	-0.21030403812814027	1.9894849865481161	-0.4836400917930907	-0.2286490779394901	2.0521187697461367	-0.4736873050133716	-0.21960086876908774	1.9854940295294867	-0.3937896223369942	-0.22448828948672042	1.8997868776348397	-0.3461145848025722	-0.23729777202818836	1.8257760214200494	-0.3139922383748237	-0.19774875557952348	1.9925532628340374	-0.5783090415527873	-0.19494340497945606	1.9096983756346742	-0.5960473693101123	-0.20717912056258614	1.8348287980125633	-0.5822834585555495
39	1.3	-0.2217168953106984	1.8363287892205151	-0.4485537456490054	-0.22891172662512166	1.834748352438656	-0.3857347624636451	-0.22198241375559843	1.7085571767684702	-0.3896060078444574	-0.21819837952440263	1.5811861334400241	-0.3786551713704068	-0.22659267255163043	1.6618969597063291	-0.3779899336703998	-0.22185050449105623	1.6668615101750466	-0.35587354616372224	-0.21272829886661931	1.5712141559697865	-0.39279388211772115	-0.21338042456112608	1.8395879237140966	-0.5111887809997849	-0.21104209127768656	1.7078242690144638	-0.4927389081365249	-0.2133088526582859	1.575733938323417	-0.4748837021209199	-0.23912003612115212	1.5401484502257141	-0.4482966993475122	-0.234138996088751	1.5428101097869211	-0.48026397058576487	-0.203379376089633	1.5663041286735548	-0.47096495717056314	-0.21034599080106808	1.9894539671030365	-0.48360981400669023	-0.2286105583040326	2.0544641500241014	-0.4741159488545944	-0.2196619171516415	1.985415699762289	-0.3937336213093776	-0.22439400925962627	1.9008971717892071	-0.3462142474165546	-0.23742115852857434	1.827140213886414	-0.3142663844087366	-0.19774472034528476	1.9925618850603837	-0.5782996129370812	-0.1949900342532394	1.9098419511496851	-0.5960547146006948	-0.20514697058147183	1.8349931021960124	-0.5845954140967986
40	1.3333333333333333	-0.2209879153535345	1.8369521704161507	-0.4539551740352716	-0.2282566040824394	1.8353247667922796	-0.39129819315485015	-0.22101278106380548	1.7063072939030135	-0.3859274898261283	-0.21820204086940373	1.5810149438116907	-0.3786429669946784	-0.22659267255163043	1.6618969597063291	-0.3779899336703998	-0.22185050449105623	1.6668615101750466	-0.35587354616372224	-0.21478337131257558	1.5695792146072562	-0.39022171867338395	-0.2118310480937224	1.8387057929466701	-0.513250164757868	-0.20989393721007674	1.709088502400705	-0.48990327460459787	-0.21324673095552407	1.5755594899949241	-0.4748947459310088	-0.23813142152132147	1.5407723721765931	-0.4449690034763577	-0.2330205084351832	1.5422475546359486	-0.4772869822022116	-0.2012332046338977	1.5655513323847703	-0.4731463834950619	-0.21134129479997465	1.988502737753825	-0.48665759043223444	-0.2286035837053001	2.0545434738601283	-0.4741850244405674	-0.22159274682071076	1.9842931883544286	-0.39170280606373087	-0.22451225151242488	1.899761361745844	-0.3461342271228784	-0.23826042767345765	1.8240282582225287	-0.3169965924611213	-0.19773306356304693	1.992548254500403	-0.5783360526515536	-0.19617601865916667	1.9073759037568192	-0.5988187663549605	-0.20757308407869285	1.8297631106658403	-0.581520377082561
41	1.3666666666666667	-0.2208739447752268	1.8380778280994572	-0.4541888685087678	-0.22814890717295716	1.8364760285208956	-0.39147533568362247	-0.22235226449816184	1.7058507939933214	-0.3888499012407104	-0.21820561418724974	1.580993298190332	-0.37861062081304736	-0.22659267255163043	1.6618969597063291	-0.3779899336703998	-0.22185050449105623	1.6668615101750466	-0.35587354616372224	-0.2149622329596112	1.5705198034545629	-0.39017629729384984	-0.21265492265599478	1.8399718577210744	-0.5166774269207186	-0.21106208223151285	1.7078812553653617	-0.492828703402079	-0.21222030226805677	1.575388010904277	-0.4716301467666783	-0.23829484340222643	1.538803301489938	-0.44444455489153156	-0.23323767723928554	1.540481514772309	-0.47673711870332947	-0.20319877142177922	1.5656037409847856	-0.470858150838609	-0.21123008029924775	1.989570991245487	-0.4867530829415142	-0.22859831795805047	2.0545549927948397	-0.47418988378085236	-0.21963691036338892	1.9854565707658154	-0.3938653479454225	-0.22439786942668163	1.900918377849428	-0.3462106900969736	-0.23716617604785703	1.8270562172490432	-0.31424981364800486	-0.19861103862333984	1.992652205123629	-0.5813898567434657	-0.1950107509035825	1.9098113630834126	-0.5960420778636075	-0.20734679072342438	1.8335982186597737	-0.5820778878779814
42	1.4	-0.2207909109371748	1.8365688786227485	-0.4539700783960337	-0.22798144366675796	1.833601985905665	-0.3911475277551749	-0.22136272710048663	1.7065154287544357	-0.3899420582167063	-0.21841264378084693	1.5794935071955072	-0.3780237803309307	-0.22659267255163043	1.6618969597063291	-0.3779899336703998	-0.22185050449105623	1.6668615101750466	-0.35587354616372224	-0.2149306192881961	1.5701343847579108	-0.39015641022271075	-0.21446523559349462	1.838481611774201	-0.5142593648600299	-0.21083285522988635	1.7063435732273928	-0.4927790577816294	-0.21330410837344826	1.5756762782861957	-0.47490934146909947	-0.23825039947116236	1.5409975062013108	-0.44495198287388427	-0.23520194728894236	1.5432892044625357	-0.4748880228133377	-0.2033758245193512	1.5662009360574625	-0.4710095397418449	-0.21121237523758843	1.9895951817611968	-0.4867445772514518	-0.228616881257367	2.0558316158831498	-0.4747967578533638	-0.21961308549390288	1.9855325291810495	-0.3938952824605561	-0.22438296876963618	1.9009671404519166	-0.3462955800668151	-0.238071412654019	1.8252775198447417	-0.31726680304669896	-0.1985017231956135	1.9938415032237538	-0.5813881530852896	-0.19291987549697873	1.9098772180440724	-0.5982840673865927	-0.20674789001014526	1.836052401780719	-0.5825559263534457
43	1.4333333333333333	-0.22076399485385212	1.839096918919277	-0.4544146854129133	-0.22979055020768557	1.8359320138384847	-0.3894701984102524	-0.2215332661526134	1.7080435337154607	-0.38992101400454593	-0.21811434005907798	1.5806469046381753	-0.3786105512720962	-0.22659267255163043	1.6618969597063291	-0.3779899336703998	-0.22185050449105623	1.6668615101750466	-0.35587354616372224	-0.21477623385838804	1.5696928642696168	-0.3901715887367718	-0.2144451378433197	1.8410346705701504	-0.5147144852586633	-0.21097737169183725	1.7075586206721447	-0.492733727657958	-0.21245472588814315	1.574032028758144	-0.47108274778723525	-0.23758728788792216	1.5377508073480546	-0.445183989210294	-0.23284959683666553	1.541250396854089	-0.4772599345686215	-0.20329517208362374	1.566003086797776	-0.4708759255098363	-0.21127126615366063	1.989575955446987	-0.48669884114654816	-0.22859718303687765	2.0545799939810787	-0.4742529740386709	-0.22149110557084942	1.9853457734191913	-0.39172194823903217	-0.22624284868098637	1.9008527508417579	-0.3441726652894765	-0.2383804236500248	1.828228114512812	-0.3177345331684325	-0.19852187258687765	1.9938106810142269	-0.5813609421508403	-0.19292786075683335	1.909869733025183	-0.5982957577677613	-0.20702581382648047	1.8336963005446865	-0.5821496239293112
